<svg width="47" height="40" viewBox="0 0 47 40" fill="none" xmlns="http://www.w3.org/2000/svg">
<path opacity="0.6" d="M18.2783 0H0V21.4719C0 27.2439 1.21855 31.6306 3.65566 34.632C6.33648 37.7489 10.8451 39.5382 17.1816 40V29.7835C14.9882 29.7835 13.1604 28.9177 11.6981 27.1861C10.967 26.2626 10.6014 24.4733 10.6014 21.8182V18.5281H18.2783V0ZM46.7925 0H28.5142V21.4719C28.5142 27.2439 29.6109 31.4574 31.8042 34.1125C34.7288 37.5758 39.3593 39.5382 45.6958 40V29.7835C41.9182 29.7835 39.7858 27.9942 39.2984 24.4156C39.1765 23.9538 39.1156 23.088 39.1156 21.8182V18.5281H46.7925V0Z" fill="#616161"/>
</svg>
