<svg width="40" height="40" viewBox="0 0 40 40" fill="none" xmlns="http://www.w3.org/2000/svg">
<rect width="40" height="40" rx="20" fill="#373737"/>
<path d="M31.375 27.874H29.625V26.124H30.5V22.624H27V23.499H25.25V21.749C25.25 21.517 25.3422 21.2944 25.5063 21.1303C25.6704 20.9662 25.8929 20.874 26.125 20.874H31.375C31.6071 20.874 31.8296 20.9662 31.9937 21.1303C32.1578 21.2944 32.25 21.517 32.25 21.749V26.999C32.25 27.2311 32.1578 27.4536 31.9937 27.6177C31.8296 27.7818 31.6071 27.874 31.375 27.874Z" fill="#9F9367"/>
<path d="M27 32.2509H21.75C21.5179 32.2509 21.2954 32.1587 21.1313 31.9946C20.9672 31.8306 20.875 31.608 20.875 31.3759V26.1259C20.875 25.8939 20.9672 25.6713 21.1313 25.5072C21.2954 25.3431 21.5179 25.2509 21.75 25.2509H27C27.2321 25.2509 27.4546 25.3431 27.6187 25.5072C27.7828 25.6713 27.875 25.8939 27.875 26.1259V31.3759C27.875 31.608 27.7828 31.8306 27.6187 31.9946C27.4546 32.1587 27.2321 32.2509 27 32.2509ZM22.625 30.5009H26.125V27.0009H22.625V30.5009ZM19.125 23.3767C18.4928 23.2119 17.9194 22.8732 17.47 22.3989C17.0206 21.9246 16.7132 21.3339 16.5827 20.6937C16.4522 20.0535 16.5038 19.3895 16.7316 18.7772C16.9595 18.1649 17.3545 17.6287 17.8718 17.2296C18.389 16.8304 19.0079 16.5844 19.658 16.5193C20.3081 16.4541 20.9634 16.5726 21.5496 16.8612C22.1357 17.1499 22.6292 17.5971 22.974 18.152C23.3187 18.707 23.501 19.3476 23.5 20.0009H25.25C25.251 18.9998 24.9657 18.0192 24.4278 17.1748C23.8899 16.3304 23.1217 15.6574 22.2139 15.2353C21.3061 14.8131 20.2965 14.6592 19.3042 14.7919C18.3119 14.9246 17.3782 15.3383 16.6132 15.9841C15.8482 16.63 15.2838 17.4811 14.9866 18.4372C14.6894 19.3932 14.6718 20.4143 14.9358 21.3801C15.1998 22.3458 15.7345 23.2159 16.4767 23.8878C17.219 24.5597 18.1378 25.0053 19.125 25.1722V23.3767Z" fill="#9F9367"/>
<path d="M31.283 17.8553L29.2617 19.6315L28.0192 18.389L30.128 16.534L28.063 12.964L25.053 13.979C24.3479 13.3921 23.5493 12.9278 22.6905 12.6053L22.0692 9.49902H17.9392L17.318 12.6053C16.4523 12.9187 15.6493 13.3839 14.9467 13.979L11.9455 12.964L9.88048 16.534L12.2605 18.6253C12.0986 19.531 12.0986 20.4583 12.2605 21.364L9.88048 23.464L11.9455 27.034L14.9555 26.019C15.6606 26.6059 16.4592 27.0703 17.318 27.3928L17.9392 30.499H19.1292V32.249H17.9392C17.5346 32.2487 17.1425 32.1081 16.8298 31.8513C16.5171 31.5944 16.3031 31.2372 16.2242 30.8403L15.778 28.6353C15.3818 28.4421 14.9989 28.2228 14.6317 27.979L12.5055 28.6965C12.3247 28.7554 12.1356 28.7849 11.9455 28.784C11.6381 28.7861 11.3358 28.7062 11.0696 28.5523C10.8035 28.3985 10.5833 28.1764 10.4317 27.909L8.36673 24.339C8.16249 23.9882 8.0866 23.5772 8.15204 23.1765C8.21749 22.7759 8.42021 22.4104 8.72548 22.1428L10.4055 20.6728C10.388 20.4453 10.3792 20.2265 10.3792 19.999C10.3792 19.7715 10.3967 19.5528 10.4142 19.334L8.72548 17.8553C8.42021 17.5876 8.21749 17.2222 8.15204 16.8215C8.0866 16.4208 8.16249 16.0099 8.36673 15.659L10.4317 12.089C10.5833 11.8216 10.8035 11.5995 11.0696 11.4457C11.3358 11.2919 11.6381 11.2119 11.9455 11.214C12.1356 11.2131 12.3247 11.2427 12.5055 11.3015L14.623 12.019C14.9932 11.7752 15.379 11.5559 15.778 11.3628L16.2242 9.15777C16.3031 8.76088 16.5171 8.4036 16.8298 8.14675C17.1425 7.8899 17.5346 7.74935 17.9392 7.74902H22.0692C22.4739 7.74935 22.8659 7.8899 23.1786 8.14675C23.4913 8.4036 23.7053 8.76088 23.7842 9.15777L24.2305 11.3628C24.6266 11.556 25.0095 11.7752 25.3767 12.019L27.503 11.3015C27.6838 11.2427 27.8728 11.2131 28.063 11.214C28.3703 11.2119 28.6727 11.2919 28.9388 11.4457C29.2049 11.5995 29.4251 11.8216 29.5767 12.089L31.6417 15.659C31.846 16.0099 31.9219 16.4208 31.8564 16.8215C31.791 17.2222 31.5882 17.5876 31.283 17.8553Z" fill="#9F9367"/>
</svg>
