<svg width="40" height="40" viewBox="0 0 40 40" fill="none" xmlns="http://www.w3.org/2000/svg">
<rect width="40" height="40" rx="20" fill="#373737"/>
<path fill-rule="evenodd" clip-rule="evenodd" d="M29.8256 28.9453C29.1294 28.9453 28.4617 28.6687 27.9694 28.1765C27.4771 27.6842 27.2006 27.0165 27.2006 26.3203C27.2006 25.6241 27.4771 24.9564 27.9694 24.4642C28.4617 23.9719 29.1294 23.6953 29.8256 23.6953C30.5218 23.6953 31.1894 23.9719 31.6817 24.4642C32.174 24.9564 32.4506 25.6241 32.4506 26.3203C32.4506 27.0165 32.174 27.6842 31.6817 28.1765C31.1894 28.6687 30.5218 28.9453 29.8256 28.9453ZM29.8256 31.1953C28.5326 31.1953 27.2927 30.6817 26.3784 29.7675C25.4642 28.8532 24.9506 27.6132 24.9506 26.3203C24.9506 25.0274 25.4642 23.7874 26.3784 22.8732C27.2927 21.9589 28.5326 21.4453 29.8256 21.4453C31.1185 21.4453 32.3585 21.9589 33.2727 22.8732C34.1869 23.7874 34.7006 25.0274 34.7006 26.3203C34.7006 27.6132 34.1869 28.8532 33.2727 29.7675C32.3585 30.6817 31.1185 31.1953 29.8256 31.1953Z" fill="#9F9367"/>
<path fill-rule="evenodd" clip-rule="evenodd" d="M26.9209 19.742C26.7666 19.6167 26.5688 19.5578 26.3711 19.5782C26.1734 19.5986 25.9918 19.6966 25.8664 19.8508L21.2164 25.574H9.57336C9.37445 25.574 9.18369 25.653 9.04303 25.7937C8.90238 25.9344 8.82336 26.1251 8.82336 26.324C8.82336 26.5229 8.90238 26.7137 9.04303 26.8544C9.18369 26.995 9.37445 27.074 9.57336 27.074H21.5734C21.6849 27.074 21.795 27.049 21.8957 27.001C21.9964 26.953 22.0851 26.8832 22.1554 26.7965L27.0304 20.7965C27.1557 20.6422 27.2146 20.4445 27.1942 20.2468C27.1738 20.0491 27.0758 19.8675 26.9216 19.742H26.9209Z" fill="#9F9367"/>
<path fill-rule="evenodd" clip-rule="evenodd" d="M23.7619 10.6477C23.7034 10.5143 23.6072 10.4009 23.4852 10.3212C23.3632 10.2416 23.2206 10.1992 23.0749 10.1992H18.9499V11.6992H22.5852L29.1379 26.6257C29.2179 26.8079 29.367 26.9509 29.5524 27.0232C29.7377 27.0955 29.9442 27.0912 30.1264 27.0112C30.3086 26.9313 30.4516 26.7822 30.5239 26.5968C30.5962 26.4114 30.5919 26.2049 30.5119 26.0227L23.7619 10.6477ZM9.57495 28.9492C8.87876 28.9492 8.21108 28.6727 7.71879 28.1804C7.22651 27.6881 6.94995 27.0204 6.94995 26.3242C6.94995 25.628 7.22651 24.9603 7.71879 24.4681C8.21108 23.9758 8.87876 23.6992 9.57495 23.6992C10.2711 23.6992 10.9388 23.9758 11.4311 24.4681C11.9234 24.9603 12.1999 25.628 12.1999 26.3242C12.1999 27.0204 11.9234 27.6881 11.4311 28.1804C10.9388 28.6727 10.2711 28.9492 9.57495 28.9492ZM9.57495 31.1992C8.28202 31.1992 7.04204 30.6856 6.1278 29.7714C5.21357 28.8571 4.69995 27.6171 4.69995 26.3242C4.69995 25.0313 5.21357 23.7913 6.1278 22.8771C7.04204 21.9628 8.28202 21.4492 9.57495 21.4492C10.8679 21.4492 12.1079 21.9628 13.0221 22.8771C13.9363 23.7913 14.4499 25.0313 14.4499 26.3242C14.4499 27.6171 13.9363 28.8571 13.0221 29.7714C12.1079 30.6856 10.8679 31.1992 9.57495 31.1992Z" fill="#9F9367"/>
<path fill-rule="evenodd" clip-rule="evenodd" d="M18.6664 26.688L16.7914 23.313L18.1024 22.584L19.9774 25.959L18.6664 26.688Z" fill="#9F9367"/>
<path d="M22.6984 21.4487H14.8234C14.525 21.4487 14.2388 21.5673 14.0279 21.7782C13.8169 21.9892 13.6984 22.2754 13.6984 22.5737C13.6984 22.8721 13.8169 23.1582 14.0279 23.3692C14.2388 23.5802 14.525 23.6987 14.8234 23.6987H20.4484C21.0451 23.6987 21.6174 23.4617 22.0394 23.0397C22.4613 22.6178 22.6984 22.0455 22.6984 21.4487ZM22.6549 15.4487H19.4621C17.1056 15.4487 15.3769 17.6627 15.9484 19.9487H23.7349C23.8627 19.9487 23.9883 19.9159 24.0999 19.8537C24.2115 19.7914 24.3053 19.7017 24.3725 19.5929C24.4397 19.4842 24.478 19.3601 24.4837 19.2325C24.4895 19.1048 24.4625 18.9778 24.4054 18.8635L22.7179 15.4877C22.712 15.476 22.703 15.4662 22.6919 15.4593C22.6808 15.4524 22.6679 15.4487 22.6549 15.4487ZM6.19836 16.9487C6.19836 16.7498 6.27738 16.5591 6.41803 16.4184C6.55869 16.2777 6.74945 16.1987 6.94836 16.1987H10.7711C11.3334 16.1989 11.8884 16.3255 12.3951 16.5692C12.9018 16.8129 13.3472 17.1674 13.6984 17.6065L14.5984 18.73C14.6867 18.8404 14.7421 18.9735 14.7581 19.1139C14.7741 19.2544 14.75 19.3966 14.6887 19.524C14.6274 19.6514 14.5313 19.7588 14.4116 19.834C14.2918 19.9092 14.1533 19.9489 14.0119 19.9487H6.94836C6.74945 19.9487 6.55869 19.8697 6.41803 19.7291C6.27738 19.5884 6.19836 19.3976 6.19836 19.1987V16.9487ZM27.1984 15.0737L31.7486 13.1987L32.4484 17.6987L27.8981 16.9487L27.1984 15.0737Z" fill="#9F9367"/>
</svg>
