<svg width="32" height="32" viewBox="0 0 32 32" fill="none" xmlns="http://www.w3.org/2000/svg">
<rect width="32" height="32" rx="16" fill="#373737"/>
<path d="M15.7926 20.3003C14.6874 20.2481 13.6448 19.7721 12.8814 18.9712C12.118 18.1704 11.6924 17.1062 11.6931 15.9998C11.6931 13.6234 13.6244 11.6921 16.0008 11.6921C18.3126 11.6921 20.1936 13.5085 20.3013 15.7916L18.7936 15.3393C18.6762 14.8416 18.4281 14.3843 18.0748 14.0146C17.7216 13.6449 17.2759 13.3763 16.7841 13.2365C16.2922 13.0967 15.772 13.0908 15.277 13.2194C14.7821 13.348 14.3306 13.6064 13.969 13.968C13.6074 14.3296 13.349 14.7812 13.2204 15.2761C13.0918 15.771 13.0977 16.2913 13.2375 16.7831C13.3773 17.275 13.6459 17.7206 14.0156 18.0739C14.3852 18.4271 14.8426 18.6753 15.3403 18.7926L15.7926 20.3003ZM23.1803 15.9998C23.1803 16.2152 23.1731 16.4306 23.1515 16.646L21.7372 16.2224C21.7444 16.1506 21.7444 16.0716 21.7444 15.9998C21.7444 12.8265 19.1741 10.2562 16.0008 10.2562C12.8274 10.2562 10.2572 12.8265 10.2572 15.9998C10.2572 19.1731 12.8274 21.7434 16.0008 21.7434C16.0726 21.7434 16.1515 21.7434 16.2233 21.7362L16.6469 23.1506C16.4315 23.1721 16.2162 23.1793 16.0008 23.1793C12.0377 23.1793 8.82129 19.9629 8.82129 15.9998C8.82129 12.0367 12.0377 8.82031 16.0008 8.82031C19.9639 8.82031 23.1803 12.0367 23.1803 15.9998ZM20.4736 19.0583L22.1033 18.5126C22.4336 18.4049 22.4264 17.9311 22.0962 17.8306L16.6398 16.1936C16.3669 16.1147 16.1085 16.366 16.1946 16.6388L17.8315 22.0952C17.9321 22.4326 18.4059 22.4398 18.5136 22.1024L19.0592 20.4726L21.8664 23.2798C22.01 23.4234 22.2326 23.4234 22.3762 23.2798L23.288 22.368C23.4315 22.2244 23.4315 22.0019 23.288 21.8583L20.4736 19.0583Z" fill="#9F9367"/>
</svg>
